<svg width="15" height="14" viewBox="0 0 15 14" fill="none" xmlns="http://www.w3.org/2000/svg">
<path fill-rule="evenodd" clip-rule="evenodd" d="M7.70711 1.70711C8.09763 1.31658 8.09763 0.683418 7.70711 0.292893C7.31658 -0.0976311 6.68342 -0.0976311 6.29289 0.292893L0.292893 6.29289C0.289305 6.29648 0.285748 6.30009 0.28222 6.30373C0.107538 6.48377 0 6.72933 0 7C0 7.27653 0.112243 7.52684 0.293655 7.70787L6.29289 13.7071C6.68342 14.0976 7.31658 14.0976 7.70711 13.7071C8.09763 13.3166 8.09763 12.6834 7.70711 12.2929L3.41421 8H13.5C14.0523 8 14.5 7.55228 14.5 7C14.5 6.44772 14.0523 6 13.5 6H3.41421L7.70711 1.70711Z" fill="black"/>
</svg>
