<svg width="21" height="15" viewBox="0 0 21 15" fill="none" xmlns="http://www.w3.org/2000/svg">
<path d="M20.4654 1.50183L14.3564 7.57147L20.4654 13.6411C20.5758 13.4103 20.6428 13.1551 20.6428 12.8826V2.2603C20.6428 1.98778 20.5758 1.73265 20.4654 1.50183Z" fill="#FAAF1E"/>
<path d="M18.8725 0.489868H2.27019C1.99767 0.489868 1.74254 0.556868 1.51172 0.6673L9.31963 8.43587C10.01 9.12624 11.1327 9.12624 11.823 8.43587L19.631 0.6673C19.4001 0.556868 19.145 0.489868 18.8725 0.489868Z" fill="#FAAF1E"/>
<path d="M0.67731 1.50183C0.566877 1.73265 0.499878 1.98778 0.499878 2.2603V12.8826C0.499878 13.1551 0.566877 13.4103 0.67731 13.6411L6.78628 7.57147L0.67731 1.50183Z" fill="#FAAF1E"/>
<path d="M13.522 8.40588L12.6575 9.27034C11.5072 10.4207 9.63543 10.4207 8.48511 9.27034L7.62069 8.40588L1.51172 14.4755C1.74254 14.586 1.99767 14.653 2.27019 14.653H18.8725C19.145 14.653 19.4001 14.586 19.631 14.4755L13.522 8.40588Z" fill="#FAAF1E"/>
</svg>
