<svg width="90" height="90" viewBox="0 0 90 90" fill="none" xmlns="http://www.w3.org/2000/svg">
<path fill-rule="evenodd" clip-rule="evenodd" d="M18.4571 16.6884C24.2964 16.4471 26.2651 12.1994 26.3613 9.51731H36.8299C33.9654 9.5421 31.6405 11.9301 31.6405 14.7907C31.6405 17.7032 34.0014 20.0641 36.9139 20.0641V25.4005H42.1875V16.6883C44.1467 17.4751 46.0866 17.3205 48.0181 16.467C48.3697 21.9009 52.8876 26.1996 58.4102 26.1996C61.8009 26.1996 64.8127 24.579 66.7144 22.0705C69.0103 24.7033 72.3893 26.3674 76.157 26.3674C83.074 26.3674 88.6814 20.76 88.6814 13.8431C88.6814 6.92614 83.074 1.31875 76.157 1.31875C71.4108 1.31875 67.2813 3.95914 65.1569 7.85092C63.3393 6.30388 60.984 5.36978 58.4102 5.36978C56.2054 5.36978 54.1611 6.0555 52.4776 7.22444C51.5901 3.82643 48.5001 1.31892 44.824 1.31892H21.0937C16.6086 1.31892 13.0287 5.03861 13.1894 9.51749C10.2839 9.49235 7.91016 11.9005 7.91016 14.7909C7.91016 17.7034 10.2711 20.0643 13.1836 20.0643V25.4008H18.4571V16.6884ZM74.2494 51.3885C77.1656 51.3885 79.5295 49.0244 79.5295 46.1084C79.5295 43.0463 76.9403 40.6374 73.8919 40.8406C74.62 36.5732 71.3461 32.641 66.9808 32.641C63.1081 32.641 59.9689 35.7803 59.9689 39.6529C59.9689 44.3693 64.5225 47.6959 68.976 46.3763C69.1156 49.1681 71.4232 51.3885 74.2494 51.3885Z" fill="#EFEFEF"/>
<path fill-rule="evenodd" clip-rule="evenodd" d="M9.75586 46.4941H21.8849L21.0939 35.9474H10.5469L9.75586 46.4941Z" fill="#717F98"/>
<path fill-rule="evenodd" clip-rule="evenodd" d="M6.5918 88.6816H25.0487L21.8847 46.4942H9.75584L6.5918 88.6816ZM10.5469 35.9476H21.0938V25.4006H10.5469V35.9476Z" fill="#717F98"/>
<path fill-rule="evenodd" clip-rule="evenodd" d="M25.0488 88.6816H30.3221L32.2996 62.3144H23.0713L25.0488 88.6816Z" fill="#E5ECF5"/>
<path fill-rule="evenodd" clip-rule="evenodd" d="M48.7788 88.6815H83.4077V57.0411L65.2584 62.2266V57.0411L46.8013 62.3145L48.7788 88.6815Z" fill="#E5ECF5"/>
<path d="M72.543 66.4997H75.1797V83.7263H72.543V66.4997Z" fill="white"/>
<path d="M77.8164 66.4997H80.4531V83.7263H77.8164V66.4997Z" fill="white"/>
<path d="M54.3936 66.4997H57.0303V83.7263H54.3936V66.4997Z" fill="white"/>
<path d="M59.667 66.4997H62.3037V83.7263H59.667V66.4997Z" fill="white"/>
<path fill-rule="evenodd" clip-rule="evenodd" d="M9.75586 46.4941H13.7109L14.502 35.9474H10.5469L9.75586 46.4941Z" fill="#717F98"/>
<path fill-rule="evenodd" clip-rule="evenodd" d="M6.5918 88.6816H10.5469L13.7109 46.4942H9.75584L6.5918 88.6816ZM10.5469 35.9476H14.5019V25.4006H10.5469V35.9476Z" fill="#717F98"/>
<path fill-rule="evenodd" clip-rule="evenodd" d="M6.5918 88.6816H25.0487L21.8847 46.4942H9.75584L6.5918 88.6816ZM30.3221 88.6816H48.779L45.615 46.4942H33.4862L30.3221 88.6816ZM34.2772 35.9476H44.8242V25.4006H34.2772V35.9476ZM10.5469 35.9476H21.0938V25.4006H10.5469V35.9476Z" fill="#C5D3DE"/>
<path fill-rule="evenodd" clip-rule="evenodd" d="M33.4862 46.4941H45.615L44.824 35.9474H34.277L33.4862 46.4941ZM9.75586 46.4941H21.8847L21.0937 35.9474H10.5469L9.75586 46.4941Z" fill="#E5ECF5"/>
<path fill-rule="evenodd" clip-rule="evenodd" d="M9.75586 46.4941H13.7109L14.502 35.9474H10.5469L9.75586 46.4941ZM33.4863 46.4941H37.4414L38.2324 35.9474H34.2773L33.4863 46.4941Z" fill="#717F98"/>
<path fill-rule="evenodd" clip-rule="evenodd" d="M6.5918 88.6816H10.5469L13.7109 46.4942H9.75584L6.5918 88.6816ZM30.3221 88.6816H34.2772L37.4412 46.4942H33.4862L30.3221 88.6816ZM34.2772 35.9476H38.2322V25.4006H34.2772V35.9476ZM10.5469 35.9476H14.5019V25.4006H10.5469V35.9476Z" fill="#819AAE"/>
<path fill-rule="evenodd" clip-rule="evenodd" d="M48.7791 88.6817H52.7342L50.6475 61.2157L46.8018 62.3145L48.7791 88.6817ZM65.2588 88.6817H69.2139V61.0966L65.2588 62.2265V88.6817Z" fill="#819AAE"/>
<path fill-rule="evenodd" clip-rule="evenodd" d="M36.9139 21.4455V25.4005H42.1875V21.4455H36.9139ZM68.962 32.9232C64.5105 31.6196 59.9691 34.9419 59.9691 39.653C59.9691 44.3649 64.5142 47.6896 68.9639 46.3799C66.1256 45.5388 63.9241 42.9321 63.9241 39.653C63.924 36.4659 66.0505 33.7759 68.962 32.9232ZM48.018 16.467C48.3695 21.9009 52.8874 26.1996 58.4101 26.1996C61.8007 26.1996 64.8125 24.5791 66.7143 22.0705C69.0102 24.7034 72.3892 26.3675 76.1569 26.3675C83.8921 26.3675 89.7281 19.4477 88.5253 11.8656C86.8517 22.4154 72.0243 24.3051 66.7143 16.7973C63.0479 25.1124 51.889 24.3248 48.018 16.467ZM13.1836 25.4009H18.4572V21.4458H13.1836V25.4009Z" fill="#9A999D"/>
<path d="M40.869 31.9923H38.2323V29.3556H40.869V31.9923ZM17.1387 31.9923H14.502V29.3556H17.1387V31.9923ZM81.4303 11.2064H78.7936V8.56973H81.4303V11.2064Z" fill="white"/>
</svg>
