<svg width="90" height="90" viewBox="0 0 90 90" fill="none" xmlns="http://www.w3.org/2000/svg">
<path d="M85.003 64.3908H71.3027V83.8088H85.003V64.3908Z" fill="#CCCCCC"/>
<path d="M18.8314 64.2959H4.99658V83.9072H18.8314V64.2959Z" fill="#CCCCCC"/>
<path d="M10.3788 64.2959H4.99658V83.9072H10.3788V64.2959Z" fill="#BCBBBB"/>
<path d="M77.1494 64.2959H71.7671V83.9072H77.1494V64.2959Z" fill="#BCBBBB"/>
<path d="M61.9684 38.5177H28.0317V50.5401H61.9684V38.5177Z" fill="#EFEFEF"/>
<path d="M33.3055 38.5177H28.0317V50.5401H33.3055V38.5177Z" fill="#DDDDDD"/>
<path d="M54.4196 3.41366H45V12.2117H54.4196C55.5798 12.2117 56.5291 11.2625 56.5291 10.1021V5.52303C56.529 4.36305 55.5798 3.41366 54.4196 3.41366Z" fill="#7DB3DF"/>
<path d="M54.4196 7.81277H45V12.2119H54.4196C55.5798 12.2119 56.5291 11.2627 56.5291 10.1023V5.70322C56.529 6.86337 55.5798 7.81277 54.4196 7.81277Z" fill="#5886AB"/>
<path d="M45 18.2995C44.2719 18.2995 43.6816 17.7094 43.6816 16.9812V1.31836C43.6816 0.590098 44.2719 0 45 0C45.7281 0 46.3183 0.590098 46.3183 1.31836V16.981C46.3185 17.7093 45.7284 18.2995 45 18.2995Z" fill="#666666"/>
<path d="M71.7672 54.6555H18.2334V83.9055H71.7672V54.6555Z" fill="#EFEFEF"/>
<path d="M23.5072 54.6555H18.2334V83.9055H23.5072V54.6555Z" fill="#DDDDDD"/>
<path d="M44.9996 16.9812C35.6283 16.9812 28.0312 24.7539 28.0312 34.1253H61.9679C61.9679 24.7539 54.3712 16.9812 44.9996 16.9812Z" fill="#EFEFEF"/>
<path d="M47.6365 17.19C37.3324 15.5473 28.0312 23.6985 28.0312 34.1253H33.305C33.3052 25.6509 39.5177 18.4843 47.6365 17.19Z" fill="#DDDDDD"/>
<path d="M86.0815 59.5195C84.4573 59.5195 73.5736 59.5195 71.7666 59.5195V64.7196C73.5244 64.7196 84.4782 64.7196 86.0815 64.7196C87.5175 64.7196 88.6815 63.5556 88.6815 62.1196C88.6817 60.6837 87.5175 59.5195 86.0815 59.5195Z" fill="#EAE4D6"/>
<path d="M77.1492 59.5195H71.7671V64.7196H77.1492V59.5195Z" fill="#DDD3C0"/>
<path d="M3.91852 59.5196C5.11928 59.5196 16.2779 59.5196 18.2334 59.5196V64.7197C16.1322 64.7197 4.48031 64.7197 3.91852 64.7197C2.48273 64.7197 1.31836 63.5557 1.31836 62.1197C1.31836 60.6838 2.48256 59.5196 3.91852 59.5196Z" fill="#EAE4D6"/>
<path d="M65.2424 36.5495C65.2424 35.1137 64.0783 33.9495 62.6424 33.9495C50.9 33.9495 39.1719 33.9495 27.3573 33.9495C25.9212 33.9495 24.7573 35.1135 24.7573 36.5495C24.7573 37.9856 25.9213 39.1497 27.3573 39.1497C33.285 39.1497 58.6402 39.1497 62.6424 39.1497C64.0783 39.1495 65.2424 37.9855 65.2424 36.5495Z" fill="#EAE4D6"/>
<path d="M31.2176 36.5497C31.2176 35.1139 32.3817 33.9495 33.8178 33.9495C32.4551 33.9495 28.8926 33.9495 27.3575 33.9495C25.9213 33.9495 24.7573 35.1135 24.7573 36.5497C24.7573 37.9858 25.9213 39.1498 27.3575 39.1498C29.0619 39.1498 32.4565 39.1498 33.8178 39.1498C32.3817 39.1495 31.2176 37.9855 31.2176 36.5497Z" fill="#DDD3C0"/>
<path d="M75.1896 52.5827C75.1896 51.1469 74.0256 49.9827 72.5895 49.9827C66.1058 49.9827 23.5634 49.9827 17.4105 49.9827C15.9746 49.9827 14.8105 51.1467 14.8105 52.5827C14.8105 54.0186 15.9746 55.1828 17.4105 55.1828C29.9341 55.1828 59.4425 55.1828 72.5895 55.1828C74.0254 55.1826 75.1896 54.0186 75.1896 52.5827Z" fill="#EAE4D6"/>
<path d="M21.2704 52.5827C21.2704 51.1469 22.4344 49.9825 23.8705 49.9825C22.5079 49.9825 18.9453 49.9825 17.4102 49.9825C15.9743 49.9825 14.8101 51.1465 14.8101 52.5827C14.8101 54.0188 15.9741 55.1828 17.4102 55.1828C19.1146 55.1828 22.5093 55.1828 23.8705 55.1828C22.4346 55.1826 21.2704 54.0186 21.2704 52.5827Z" fill="#DDD3C0"/>
<path d="M7.77867 62.1195C7.77867 60.6837 8.94269 59.5193 10.3788 59.5193C9.01617 59.5193 5.45361 59.5193 3.91852 59.5193C2.48256 59.5193 1.31836 60.6834 1.31836 62.1195C1.31836 63.5556 2.48238 64.7197 3.91852 64.7197C5.62289 64.7197 9.01758 64.7197 10.3788 64.7197C8.94269 64.7197 7.77867 63.5555 7.77867 62.1195Z" fill="#DDD3C0"/>
<path d="M86.0815 83.4815C70.386 83.4815 19.5704 83.4815 3.91852 83.4815C2.48256 83.4815 1.31836 84.6455 1.31836 86.0817C1.31836 87.5174 2.48238 88.6816 3.91852 88.6816C29.0791 88.6816 61.7091 88.6816 86.0815 88.6816C87.5174 88.6816 88.6816 87.5176 88.6816 86.0817C88.6816 84.6455 87.5174 83.4815 86.0815 83.4815Z" fill="#EAE4D6"/>
<path d="M20.8702 86.0815C20.8702 84.6455 22.0342 83.4813 23.4703 83.4813H3.91852C2.48256 83.4813 1.31836 84.6454 1.31836 86.0815C1.31836 87.5173 2.48238 88.6816 3.91852 88.6816H23.4703C22.0344 88.6816 20.8702 87.5174 20.8702 86.0815Z" fill="#DDD3C0"/>
<path d="M35.5073 47.1206C36.2354 47.1206 36.8257 46.5305 36.8257 45.8022V43.3826C36.8257 42.6543 36.2354 42.0642 35.5073 42.0642C34.7792 42.0642 34.189 42.6543 34.189 43.3826V45.8022C34.189 46.5303 34.7792 47.1206 35.5073 47.1206Z" fill="white"/>
<path d="M41.8354 47.1206C42.5635 47.1206 43.1538 46.5305 43.1538 45.8022V43.3826C43.1538 42.6543 42.5635 42.0642 41.8354 42.0642C41.1074 42.0642 40.5171 42.6543 40.5171 43.3826V45.8022C40.5171 46.5303 41.1074 47.1206 41.8354 47.1206Z" fill="white"/>
<path d="M54.4922 47.1206C55.2204 47.1206 55.8105 46.5305 55.8105 45.8022V43.3826C55.8105 42.6543 55.2204 42.0642 54.4922 42.0642C53.7639 42.0642 53.1738 42.6543 53.1738 43.3826V45.8022C53.1737 46.5303 53.7641 47.1206 54.4922 47.1206Z" fill="white"/>
<path d="M48.1641 47.1206C48.8923 47.1206 49.4824 46.5305 49.4824 45.8022V43.3826C49.4824 42.6543 48.8923 42.0642 48.1641 42.0642C47.4358 42.0642 46.8457 42.6543 46.8457 43.3826V45.8022C46.8455 46.5303 47.4358 47.1206 48.1641 47.1206Z" fill="white"/>
<path d="M76.917 72.2547H80.2243C80.9526 72.2547 81.5427 71.6646 81.5427 70.9363C81.5427 70.2081 80.9526 69.618 80.2243 69.618H76.917C76.1889 69.618 75.5986 70.2081 75.5986 70.9363C75.5986 71.6646 76.1886 72.2547 76.917 72.2547Z" fill="#EAE4D6"/>
<path d="M76.917 78.583H80.2243C80.9526 78.583 81.5427 77.9929 81.5427 77.2646C81.5427 76.5363 80.9526 75.9462 80.2243 75.9462H76.917C76.1889 75.9462 75.5986 76.5363 75.5986 77.2646C75.5985 77.9929 76.1886 78.583 76.917 78.583Z" fill="#EAE4D6"/>
<path d="M9.96094 72.2547H13.2683C13.9963 72.2547 14.5866 71.6646 14.5866 70.9363C14.5866 70.2081 13.9963 69.618 13.2683 69.618H9.96094C9.23285 69.618 8.64258 70.2081 8.64258 70.9363C8.64258 71.6646 9.23267 72.2547 9.96094 72.2547Z" fill="#EAE4D6"/>
<path d="M9.96094 78.583H13.2683C13.9963 78.583 14.5866 77.9929 14.5866 77.2646C14.5866 76.5363 13.9963 75.9462 13.2683 75.9462H9.96094C9.23285 75.9462 8.64258 76.5363 8.64258 77.2646C8.64258 77.9929 9.23267 78.583 9.96094 78.583Z" fill="#EAE4D6"/>
<path d="M38.6719 80.1111C39.4 80.1111 39.9902 79.521 39.9902 78.7927V60.4517C39.9902 59.7234 39.4 59.1333 38.6719 59.1333C37.9438 59.1333 37.3535 59.7234 37.3535 60.4517V78.7925C37.3535 79.5206 37.9438 80.1111 38.6719 80.1111Z" fill="white"/>
<path d="M32.3433 80.1111C33.0713 80.1111 33.6616 79.521 33.6616 78.7927V60.4517C33.6616 59.7234 33.0713 59.1333 32.3433 59.1333C31.6152 59.1333 31.0249 59.7234 31.0249 60.4517V78.7925C31.0249 79.5206 31.6152 80.1111 32.3433 80.1111Z" fill="white"/>
<path d="M26.0151 80.1111C26.7432 80.1111 27.3335 79.521 27.3335 78.7927V60.4517C27.3335 59.7234 26.7432 59.1333 26.0151 59.1333C25.2871 59.1333 24.6968 59.7234 24.6968 60.4517V78.7925C24.6968 79.5206 25.2871 80.1111 26.0151 80.1111Z" fill="white"/>
<path d="M63.9844 80.1111C64.7126 80.1111 65.3027 79.521 65.3027 78.7927V60.4517C65.3027 59.7234 64.7126 59.1333 63.9844 59.1333C63.2561 59.1333 62.666 59.7234 62.666 60.4517V78.7925C62.666 79.5206 63.2563 80.1111 63.9844 80.1111Z" fill="white"/>
<path d="M57.6563 80.1111C58.3845 80.1111 58.9746 79.521 58.9746 78.7927V60.4517C58.9746 59.7234 58.3845 59.1333 57.6563 59.1333C56.928 59.1333 56.3379 59.7234 56.3379 60.4517V78.7925C56.3377 79.5206 56.9282 80.1111 57.6563 80.1111Z" fill="white"/>
<path d="M51.3281 80.1111C52.0564 80.1111 52.6465 79.521 52.6465 78.7927V60.4517C52.6465 59.7234 52.0564 59.1333 51.3281 59.1333C50.5999 59.1333 50.0098 59.7234 50.0098 60.4517V78.7925C50.0096 79.5206 50.5999 80.1111 51.3281 80.1111Z" fill="white"/>
<path d="M45 80.1111C45.7283 80.1111 46.3183 79.521 46.3183 78.7927V60.4517C46.3183 59.7234 45.7283 59.1333 45 59.1333C44.2719 59.1333 43.6816 59.7234 43.6816 60.4517V78.7925C43.6816 79.5206 44.2719 80.1111 45 80.1111Z" fill="white"/>
</svg>
