<svg width="25" height="24" viewBox="0 0 25 24" fill="none" xmlns="http://www.w3.org/2000/svg">
<path d="M24.5627 7.05581C24.5064 5.78067 24.3006 4.9038 24.0056 4.14435C23.7013 3.33793 23.2333 2.61605 22.6199 2.01581C22.0206 1.40618 21.2952 0.93276 20.4994 0.632642C19.7364 0.337691 18.8661 0.131507 17.5925 0.0751468C16.3099 0.01409 15.9024 0 12.6494 0C9.39599 0 8.98896 0.01409 7.71065 0.0704501C6.43749 0.12681 5.56199 0.332994 4.80373 0.628415C3.99857 0.93276 3.27782 1.40196 2.67852 2.01628C2.06985 2.61605 1.59763 3.34309 1.29798 4.13965C1.00303 4.90427 0.797164 5.77597 0.740892 7.05112C0.679931 8.33613 0.665863 8.7438 0.665863 12.0024C0.665863 15.2609 0.679931 15.6686 0.736203 16.9484C0.792475 18.2236 0.998337 19.1004 1.2933 19.8599C1.59763 20.6663 2.07032 21.3882 2.67852 21.9884C3.27782 22.598 4.00326 23.0715 4.79904 23.3716C5.56199 23.667 6.4328 23.8732 7.70596 23.9291C8.9838 23.9854 9.3913 23.9995 12.6448 23.9995C15.8977 23.9995 16.3053 23.9854 17.5831 23.9291C18.8562 23.8732 19.7317 23.6665 20.49 23.3716C22.1003 22.7479 23.3735 21.4727 23.9962 19.8599C24.2912 19.0957 24.497 18.2236 24.5533 16.9484C24.6096 15.6686 24.6237 15.2604 24.6237 12.0024C24.6237 8.7438 24.619 8.33613 24.5627 7.05581Z" fill="white"/>
<path d="M12.6237 5.33301C8.94324 5.33301 5.95703 8.31871 5.95703 11.9997C5.95703 15.6801 8.94324 18.6663 12.6237 18.6663C16.3042 18.6663 19.2904 15.6801 19.2904 11.9997C19.2899 8.31871 16.3042 5.33301 12.6237 5.33301ZM12.6237 16.3241C10.2357 16.3241 8.29928 14.3876 8.29928 11.9997C8.29928 9.61172 10.2363 7.67525 12.6237 7.67525C15.0117 7.67525 16.9481 9.61172 16.9481 11.9997C16.9481 14.3876 15.0111 16.3241 12.6237 16.3241Z" fill="#2A2929"/>
<path d="M20.4854 5.59336C20.4854 6.38851 19.842 7.03242 19.0481 7.03242C18.2546 7.03242 17.6113 6.38804 17.6113 5.59336C17.6113 4.79821 18.2546 4.1543 19.0481 4.1543C19.842 4.1543 20.4854 4.79821 20.4854 5.59336Z" fill="#2A2929"/>
</svg>
