<svg width="100" height="100" viewBox="0 0 100 100" fill="none" xmlns="http://www.w3.org/2000/svg">
<circle cx="50" cy="50" r="50" fill="#F3F6F9"/>
<mask id="mask0" mask-type="alpha" maskUnits="userSpaceOnUse" x="0" y="0" width="100" height="100">
<circle cx="50" cy="50" r="50" fill="white"/>
</mask>
<g mask="url(#mask0)">
<g clip-path="url(#clip0)">
<path d="M36.6936 31.5282C23.2838 33.1756 4.62646 48.9826 4.62646 64.7896L52.9347 40.0081C52.9347 40.0081 51.4059 29.722 36.6936 31.5282Z" fill="#D7E7EB"/>
<path d="M88.5896 90.7587C88.5863 89.4843 87.666 88.3883 86.3948 88.1775C64.5289 84.5472 32.6275 68.4159 39.6088 53.2639C42.1628 47.7203 49.3541 46.9242 49.3541 46.9242V41.0791H31.2791L7.125 58.0389V83.5614L52.602 99.0392L88.6125 99.0311L88.5896 90.7587Z" fill="#B0E5F2"/>
<path d="M74.289 88.5245C56.5847 82.8885 36.4085 71.3863 33.943 59.4495C32.8735 54.2724 35.2783 46.3486 44.6069 41.0791H31.2807L7.125 58.0389V79.9683L31.3857 72.1029C33.8003 75.2193 36.9465 78.1572 40.8194 80.818C41.0507 80.9769 41.3164 81.0531 41.5788 81.0531C42.0004 81.0531 42.4154 80.8569 42.6746 80.4888C43.0945 79.8905 42.9453 79.0701 42.34 78.655C36.6381 74.7377 32.6291 70.1864 30.3966 65.3644C30.0931 64.7094 30.3835 63.9343 31.0249 63.5922C31.6826 63.2404 32.4815 63.529 32.8079 64.1954C39.1134 77.0612 60.638 86.9485 73.4721 91.0344C73.6083 91.0765 73.746 91.0976 73.8806 91.0976C74.4432 91.0976 74.9665 90.7425 75.1485 90.1848C75.3749 89.4908 74.9894 88.7482 74.289 88.5245Z" fill="#3BB7DD"/>
<path d="M7.125 58.0389V79.9683L24.9802 74.18C24.3946 72.8585 23.8254 71.4884 23.2841 70.0584C15.2874 48.9834 36.6102 41.0791 36.6102 41.0791H31.2791L7.125 58.0389Z" fill="#3294BD"/>
<path d="M12.8447 55.6803C12.8447 55.6803 23.6103 37.1396 43.6685 37.1396C48.0499 37.1396 52.6051 39.1194 54.1847 40.2576C61.2645 45.3618 53.4499 53.5336 49.7148 47.9965C45.4384 41.6569 37.7042 40.2349 30.2242 43.2199C21.5615 46.6783 16.7307 55.1307 16.7307 55.1307L12.8447 55.6803Z" fill="#E7F9FE"/>
<path d="M10.7351 73.0228C4.18357 67.9737 6.9492 54.581 19.2862 58.0946C25.8378 59.9608 28.3918 54.6912 24.6174 52.277C22.626 51.0026 18.1839 51.0155 13.2416 52.5915C8.10072 54.2308 4.62646 58.9831 4.62646 64.3224V81.9145C4.62646 87.0073 8.80279 91.1354 13.9551 91.1354L10.7351 73.0228Z" fill="#B0E5F2"/>
<path d="M26.9485 75.4384C26.9485 75.4384 42.9518 97.2835 87.2477 97.7148C87.9826 97.7212 88.5829 98.3049 88.5829 99.0313C88.5829 99.7626 87.9826 100.356 87.2428 100.356H33.2786C27.2487 100.356 19.0634 97.7212 13.9553 91.1351C9.6806 85.624 11.2898 75.3281 11.2898 75.3281L26.9485 75.4384Z" fill="#2C7A9B"/>
<path d="M87.2805 97.7212C80.0826 97.7212 64.0483 97.7212 47.2724 97.7212C36.4445 97.7212 28.6988 94.078 23.7121 89.2721C21.87 87.4967 23.2135 84.395 25.7855 84.4079H25.8101C28.269 84.4079 30.6327 82.7995 31.7433 80.2847C28.4396 77.4619 26.9485 75.4384 26.9485 75.4384L11.2898 75.3281C11.2898 75.3281 9.6806 85.6256 13.9553 91.1351C19.0634 97.7212 27.2487 100.356 33.2786 100.356H87.2444C87.9842 100.356 88.5846 99.7626 88.5846 99.0313C88.5829 98.3179 87.999 97.7456 87.2805 97.7212Z" fill="#3294BD"/>
<path d="M8.73565 76.5362C6.82956 84.3141 13.9552 91.1353 13.9552 91.1353C13.9552 91.1353 10.1447 84.5832 13.0399 79.8568C14.9558 76.7275 18.8697 76.0692 23.2839 80.5978C26.6482 84.0481 31.2642 79.1629 29.1284 75.4677C31.0591 75.8195 33.0407 75.1337 33.2785 73.3534C34.1479 66.8176 12.1787 62.4852 8.73565 76.5362Z" fill="#E8FAFF"/>
<path d="M13.0378 79.8566C14.9537 76.7273 18.8675 76.069 23.2817 80.5976C26.6461 84.0479 31.262 79.1626 29.1263 75.4674C25.1698 70.1687 15.2014 69.5656 11.7878 75.328C8.2381 81.3175 11.2875 87.6231 13.9531 91.135C13.9547 91.135 10.1442 84.583 13.0378 79.8566Z" fill="#B0E5F2"/>
<path d="M81.5751 93.1717C81.4816 93.1717 81.3881 93.1619 81.2929 93.1425C80.5466 92.9836 79.769 92.802 78.9636 92.6026C78.2501 92.4242 77.817 91.7092 77.9975 91.0039C78.1779 90.2969 78.9046 89.8705 79.6165 90.0489C80.3907 90.2418 81.1371 90.4153 81.8539 90.5677C82.5724 90.7201 83.0317 91.4206 82.8759 92.1323C82.7414 92.7501 82.1886 93.1717 81.5751 93.1717Z" fill="#3BB7DD"/>
<path d="M47.5479 84.6042C47.3396 84.6042 47.1297 84.5571 46.9345 84.455C46.3341 84.1469 45.7452 83.8291 45.1678 83.5081C44.5264 83.1498 44.3017 82.3472 44.6626 81.7132C45.0251 81.0792 45.8387 80.8555 46.4784 81.2122C47.0296 81.5203 47.5922 81.8218 48.1663 82.1169C48.8192 82.4526 49.0735 83.2487 48.7323 83.894C48.4928 84.348 48.0286 84.6042 47.5479 84.6042Z" fill="#3BB7DD"/>
</g>
</g>
<defs>
<clipPath id="clip0">
<rect width="83.9858" height="69.0391" fill="white" transform="translate(4.62646 31.3169)"/>
</clipPath>
</defs>
</svg>
