<svg width="100" height="100" viewBox="0 0 100 100" fill="none" xmlns="http://www.w3.org/2000/svg">
<circle cx="50" cy="50" r="50" fill="#F3F6F9"/>
<mask id="mask0" mask-type="alpha" maskUnits="userSpaceOnUse" x="0" y="0" width="100" height="100">
<circle cx="50" cy="50" r="50" fill="white"/>
</mask>
<g mask="url(#mask0)">
<path d="M52.8237 46.0016C52.8237 46.0016 48.7965 43.6808 52.0956 35.2952C55.3947 26.9097 65.3123 24.3664 67.5547 21.8384C67.5547 21.8384 66.6496 47.5917 52.8237 46.0016Z" fill="#92E3A9"/>
<path opacity="0.3" d="M65.7973 24.2451C64.6647 26.3965 61.1785 29.1116 57.3485 35.6441C55.4756 38.9116 53.9164 42.3491 52.6918 45.9106C52.0825 45.4606 49.6177 43.1853 51.4834 37.0624C51.5567 39.2365 52.3278 40.4576 52.3278 40.4576C52.0851 32.0012 65.7973 24.2451 65.7973 24.2451Z" fill="black" fill-opacity="0.7"/>
<path d="M48.0229 68.1192C48.0229 68.1192 49.742 37.8432 64.3315 26.4062C64.3315 26.4062 50.7962 37.5879 50.0985 68.1192H48.0229Z" fill="#92E3A9"/>
<path opacity="0.3" d="M48.0229 68.1192C48.0229 68.1192 49.742 37.8432 64.3315 26.4062C64.3315 26.4062 50.7962 37.5879 50.0985 68.1192H48.0229Z" fill="black" fill-opacity="0.7"/>
<path d="M46.6582 36.5592C46.6582 36.5592 50.2607 34.4836 47.3079 26.9829C44.3551 19.4821 35.4867 17.2069 33.4819 14.9468C33.4819 14.9468 34.2909 37.9723 46.6582 36.5592Z" fill="#92E3A9"/>
<path opacity="0.3" d="M47.3172 26.9776C47.16 26.5725 46.9697 26.1811 46.7484 25.8071C46.2959 25.0487 47.4361 27.2961 47.4588 29.1113C47.4752 29.5653 47.3884 30.017 47.2049 30.4326C47.0214 30.8481 46.7461 31.2167 46.3996 31.5104C46.172 30.3222 46.0482 29.0759 45.4793 28.0065C42.5822 22.5358 35.8171 17.5783 34.7427 16.7617C34.859 16.9083 38.5626 21.565 40.7544 24.2448C41.9299 25.6883 42.7111 27.5085 43.4847 29.1846C44.4656 31.3158 45.3454 33.4823 46.2175 35.6665C46.3389 35.9724 46.4703 36.2758 46.5841 36.5792C47.565 35.9674 48.1009 34.8298 48.3285 33.6947C48.7026 31.7556 48.2577 29.7509 47.6383 27.8801C47.5397 27.5742 47.4361 27.2734 47.3172 26.9776Z" fill="black" fill-opacity="0.7"/>
<path d="M50.3511 55.115C50.3511 55.115 49.4157 29.2631 36.3684 19.0244C36.3684 19.0244 48.9303 30.2768 49.1149 59.2332C49.1149 59.2332 49.5244 59.3141 49.7444 58.6467" fill="#92E3A9"/>
<path opacity="0.3" d="M50.3511 55.115C50.3511 55.115 49.4157 29.2631 36.3684 19.0244C36.3684 19.0244 48.9303 30.2768 49.1149 59.2332C49.1149 59.2332 49.5244 59.3141 49.7444 58.6467" fill="black" fill-opacity="0.7"/>
<path d="M13.848 90.934C13.848 90.934 12.3173 89.89 13.848 86.6275C15.0227 84.1289 18.845 84.2517 19.0541 81.6379C20.6204 81.8068 21.8708 80.9125 22.6806 79.8186C23.4905 78.7247 24.1446 77.412 25.4973 76.8363C25.9422 76.6597 26.3872 76.5638 26.7966 76.3757C28.4029 75.6388 28.9591 73.6468 30.6945 73.1939C31.7179 72.9252 32.9193 73.2898 33.8582 72.8791C34.7971 72.4684 35.2598 71.3438 36.2788 70.96C36.7161 70.845 37.1621 70.7565 37.6137 70.6952C39.4158 70.2883 40.5772 68.3923 42.4416 68.4345C42.98 68.4537 43.5585 68.6417 44.039 68.4345C44.4173 68.2733 44.6442 67.901 45.0358 67.7705C45.3727 67.7015 45.7251 67.7134 46.0547 67.805C47.0957 67.9983 48.1797 67.9209 49.1695 67.5824C50.0594 67.2331 50.2641 66.216 50.807 65.9857C52.9651 65.0684 55.3857 68.6418 56.6361 69.5361C57.3658 70.0619 58.189 68.7185 59.1368 68.7492C60 68.7799 60.4405 69.9314 61.2949 69.8393C60.8988 70.1079 61.1258 70.7029 61.5618 70.9216C62.0279 71.09 62.5296 71.1723 63.0347 71.1634C64.2628 71.2748 65.3708 71.8313 66.4387 72.3725C66.6303 72.4522 66.7978 72.5691 66.9281 72.7141C67.0572 72.883 67.0839 73.0979 67.2174 73.2629C67.4977 73.6045 68.1473 73.6468 68.3565 74.0076C68.4223 74.2025 68.4612 74.4035 68.4722 74.6063C68.6101 75.1744 69.3888 75.4315 70.0607 75.4737C70.7326 75.516 71.4534 75.4469 72.0275 75.7539C72.4246 76.0358 72.7857 76.3537 73.1043 76.702C74.4392 77.8189 75.9877 77.7575 77.2202 79.1699C78.5106 80.6476 79.3828 82.2635 81.2249 83.3305C84.3397 85.1383 85.2296 87.6869 86.0795 90.055C86.9294 92.4232 74.8575 98.3187 50.4822 99.8271C26.1069 101.335 13.5277 92.5307 13.848 90.934Z" fill="#473026"/>
<path opacity="0.4" d="M36.2996 74.6679C36.8507 74.7993 37.6549 74.7665 37.7226 74.2573C37.7111 74.1417 37.7202 74.0252 37.7497 73.9124C37.8943 73.6085 38.4093 73.8426 38.7662 73.7686C39.0328 73.7112 39.1954 73.473 39.3897 73.3005C39.6385 73.0927 39.9596 72.9707 40.2972 72.9557C40.6348 72.9407 40.9674 73.0336 41.2374 73.2184C41.5491 73.4484 41.7569 73.8015 42.1138 73.9657C42.7825 74.2696 43.8803 73.9288 44.1287 74.5653" stroke="white" stroke-linecap="round" stroke-linejoin="round"/>
<path opacity="0.4" d="M45.9075 77.4389C46.06 77.5115 46.2326 77.5576 46.4124 77.5736C46.5922 77.5897 46.7746 77.5754 46.946 77.5318C47.1173 77.4882 47.2732 77.4163 47.402 77.3216C47.5308 77.2269 47.6292 77.1119 47.6898 76.985C47.7388 76.8524 47.7566 76.6967 47.9081 76.6139C48.1398 76.4913 48.4518 76.657 48.7369 76.6768C49.3028 76.7199 49.6281 76.2295 49.9979 75.9148C50.2222 75.7281 50.5094 75.5893 50.8299 75.5125C51.1504 75.4358 51.4926 75.4241 51.8212 75.4784C52.1498 75.5327 52.4531 75.6513 52.6996 75.8217C52.9462 75.9922 53.1272 76.2084 53.2239 76.4482L56.5836 77.1109" stroke="white" stroke-linecap="round" stroke-linejoin="round"/>
<path opacity="0.4" d="M51.9573 73.0698C52.5135 72.9112 53.0956 72.8371 53.6792 72.8508C53.6025 72.6892 53.5857 72.51 53.6313 72.3393C53.6768 72.1686 53.7823 72.0154 53.9324 71.902C54.0824 71.7887 54.2692 71.7212 54.4653 71.7093C54.6614 71.6975 54.8566 71.7419 55.0224 71.8362C55.1601 71.7241 55.323 71.6394 55.5003 71.5879C55.6775 71.5364 55.865 71.5191 56.0503 71.5373C56.2356 71.5555 56.4145 71.6086 56.575 71.6933C56.7354 71.778 56.8739 71.8922 56.9811 72.0283L57.1102 72.5126C57.9579 72.7635 58.745 73.1546 59.4306 73.6655" stroke="white" stroke-linecap="round" stroke-linejoin="round"/>
<path opacity="0.4" d="M60.855 75.1785L61.7147 75.4448C61.5728 75.2101 61.8394 74.9212 62.1016 74.8671C62.3638 74.8676 62.6242 74.8203 62.871 74.7271C63.1289 74.5646 63.2063 74.2216 63.3739 73.9598C63.5416 73.698 63.9628 73.549 64.1047 73.8244C64.0703 73.5355 64.3755 73.3008 64.6549 73.3098C64.9353 73.3486 65.1993 73.4708 65.4157 73.6619L67.6165 75.2688" stroke="white" stroke-linecap="round" stroke-linejoin="round"/>
<path d="M66.2271 78.9647C66.5789 78.7698 66.8815 78.4969 67.1116 78.1669C67.3416 77.8369 67.4931 77.4586 67.5543 77.061" stroke="#263238" stroke-linecap="round" stroke-linejoin="round"/>
</g>
</svg>
