<svg width="100" height="100" viewBox="0 0 100 100" fill="none" xmlns="http://www.w3.org/2000/svg">
<circle cx="50" cy="50" r="50" fill="#F3F6F9"/>
<mask id="mask0" mask-type="alpha" maskUnits="userSpaceOnUse" x="0" y="0" width="100" height="100">
<circle cx="50" cy="50" r="50" fill="#F3F6F9"/>
</mask>
<g mask="url(#mask0)">
<path d="M21.9276 90.5793H20.4842C19.3905 90.5793 18.5046 91.4668 18.5046 92.5588C18.5046 93.6525 19.3905 94.5384 20.4842 94.5384H79.8702C80.9639 94.5384 81.8497 93.6525 81.8497 92.5588C81.8497 91.4668 80.9639 90.5793 79.8702 90.5793H77.409V59.8965C77.409 58.8028 76.5231 57.917 75.4294 57.917C74.3358 57.917 73.4499 58.8028 73.4499 59.8965V90.5793H67.1418H21.9276ZM63.1827 90.5793H53.3098V66.5972C53.3098 65.5052 52.424 64.6177 51.3303 64.6177C50.2366 64.6177 49.3507 65.5052 49.3507 66.5972V90.581H44.3161V62.1928C44.3161 61.1007 43.4286 60.2133 42.3366 60.2133C41.2429 60.2133 40.357 61.1007 40.357 62.1928V90.5793H36.8764V68.8044C36.8764 67.7107 35.9905 66.8249 34.8968 66.8249C33.8031 66.8249 32.9173 67.7107 32.9173 68.8044V90.5793H25.8867H63.1827Z" fill="#9F7766"/>
<path d="M34.897 66.8247C33.8033 66.8247 32.9175 67.7105 32.9175 68.8042V74.6884C33.9122 74.0434 33.3678 74.2282 35.6228 75.2295C36.0649 75.4258 36.4823 75.5841 36.8765 75.7095V68.8042C36.8765 67.7105 35.9907 66.8247 34.897 66.8247Z" fill="#845F52"/>
<path d="M75.4297 57.917C74.336 57.917 73.4502 58.8028 73.4502 59.8965V70.4128C74.9513 70.2066 76.271 68.8077 77.4093 66.7969V59.8965C77.4093 58.8028 76.5234 57.917 75.4297 57.917Z" fill="#845F52"/>
<path d="M51.3306 64.6177C50.2369 64.6177 49.3511 65.5052 49.3511 66.5972V80.9109C50.7367 80.4424 51.6721 81.3002 53.3101 80.4226V66.5972C53.3101 65.5035 52.4243 64.6177 51.3306 64.6177Z" fill="#845F52"/>
<path d="M42.3365 60.2134C41.2428 60.2134 40.3569 61.1009 40.3569 62.1929V75.8484C40.7792 75.7032 41.1553 75.4937 41.4919 75.2314C42.4272 74.504 42.7373 78.7896 44.316 81.2162V62.1929C44.316 61.0992 43.4285 60.2134 42.3365 60.2134Z" fill="#845F52"/>
<path d="M81.7309 62.1401H67.5591L72.1516 33.4451C72.6052 30.6094 76.688 30.6094 77.1417 33.4451L81.7309 62.1401Z" fill="#91C656"/>
<path d="M49.7848 46.8066C49.9531 42.5143 46.5202 39.0039 42.2873 39.0039C38.0363 39.0039 34.6067 42.5374 34.7898 46.8346C31.7133 47.7716 29.4731 50.632 29.4731 54.0154C29.4731 60.7111 37.647 64.05 42.3368 59.2694C47.025 64.0483 55.1988 60.7111 55.1988 54.0154C55.1988 50.5957 52.9125 47.7139 49.7848 46.8066Z" fill="#91C656"/>
<path d="M58.6051 77.7949H44.209L48.8724 48.6463C49.3343 45.7644 53.4798 45.7644 53.9417 48.6463L58.6051 77.7949Z" fill="#9BD65E"/>
<path d="M42.0794 58.9546C42.2179 55.4294 39.3971 52.5459 35.9197 52.5459C32.4291 52.5459 29.61 55.4492 29.7601 58.9794C27.2329 59.7481 25.3936 62.0988 25.3936 64.8767C25.3936 70.3766 32.1075 73.1199 35.9593 69.1938C39.8112 73.1199 46.5251 70.3782 46.5251 64.8767C46.5267 62.0675 44.6478 59.6986 42.0794 58.9546Z" fill="#9BD65E"/>
<path d="M22.1047 85.07C20.5062 80.7812 14.2586 77.5801 6.79024 77.5801L6.76099 94.5313L37.366 94.6619C36.0893 89.6904 29.9694 85.5992 22.1047 85.07Z" fill="#9BD65E"/>
<path d="M96.085 94.8874L96.0532 77.7661C91.657 77.7661 87.6504 78.7196 84.6252 80.2818C77.2587 75.2736 62.8662 78.2412 62.8662 84.8083C62.8662 86.773 64.2749 88.5496 66.5466 89.8264C64.6848 91.3292 63.3945 93.1091 62.8662 95.0177L96.085 94.8874Z" fill="#9BD65E"/>
<path d="M49.5769 44.7267C48.7769 41.4423 45.8175 39.0059 42.2857 39.0059C38.0346 39.0059 34.6051 42.5393 34.7882 46.8366C33.0264 47.3727 31.5401 48.5406 30.5916 50.0748C30.999 51.0992 32.3682 51.5347 35.9594 49.8372C44.1497 45.9672 38.6351 38.4005 44.2074 44.5585C46.1903 46.7475 48.0675 46.279 49.5769 44.7267Z" fill="#9BD65E"/>
<path d="M81.269 59.2481L77.1401 33.4449C76.6864 30.6076 72.6036 30.6076 72.15 33.4449L69.5881 49.4593C69.7251 49.5567 69.8653 49.654 70.0154 49.7497C74.2384 52.4732 76.566 60.3187 78.5175 62.1399H79.9906C80.4112 61.673 80.8319 60.7509 81.269 59.2481Z" fill="#9BD65E"/>
<path d="M77.1397 33.4449C76.6861 30.6076 72.6033 30.6076 72.1496 33.4449L70.6567 42.7701C71.4947 44.4082 72.4812 45.3188 73.5337 44.2284C75.0728 42.6332 76.6811 40.1341 77.8804 38.0853L77.1397 33.4449Z" fill="#ACED70"/>
<path d="M37.4868 57.432C39.1464 56.9075 40.4594 56.4571 41.4905 56.0695C40.5007 53.986 38.3793 52.5459 35.9197 52.5459C32.4291 52.5459 29.6099 55.4492 29.7617 58.9777C29.7485 62.9896 34.0078 58.5323 37.4868 57.432Z" fill="#ACED70"/>
<path d="M39.2244 66.838C33.5134 72.9334 38.7839 64.5302 33.4177 65.8499C30.2719 66.6236 27.4907 66.8298 25.7256 66.8677C27.2102 71.2211 32.7612 72.4566 35.9614 69.1937C39.8133 73.1198 46.5272 70.3765 46.5272 64.8767C46.5272 63.59 46.1329 62.3973 45.4582 61.4092C43.7262 62.5623 41.5668 64.3372 39.2244 66.838Z" fill="#91C656"/>
<path d="M53.9418 48.6463C53.4799 45.7644 49.3344 45.7644 48.8725 48.6463L45.8867 67.3067C46.9441 72.3396 47.1454 64.1196 52.4208 57.6663C53.3892 56.4836 54.2041 55.4674 54.8936 54.5981L53.9418 48.6463Z" fill="#ACED70"/>
<path d="M53.9418 48.6463C53.4799 45.7644 49.3345 45.7644 48.8726 48.6463L48.6152 50.2546C51.9046 50.1623 52.1124 49.7828 53.3876 50.9772C53.569 51.1471 53.9039 51.1916 54.3394 51.1372L53.9418 48.6463Z" fill="#C0F28B"/>
<path d="M53.2126 73.4149C51.9325 73.5502 46.8335 75.8002 44.3574 76.8626L44.209 77.793H58.6051C57.8579 73.1163 57.8628 73.2334 57.876 73.2334C56.9077 72.2618 54.8836 73.2384 53.2126 73.4149Z" fill="#91C656"/>
<path d="M79.8703 104.271H20.4842C19.3905 104.271 18.5046 101.165 18.5046 97.3311C18.5046 93.5028 19.3905 90.3916 20.4842 90.3916H79.8703C80.964 90.3916 81.8498 93.5028 81.8498 97.3311C81.8498 101.165 80.964 104.271 79.8703 104.271Z" fill="#91C656"/>
<path d="M11.2401 82.8294C15.042 88.2847 15.0369 82.9169 19.5875 87.6694C24.1406 92.4203 29.7098 91.9798 31.8819 88.8126C32.0678 88.5437 32.1289 88.2154 32.0907 87.8443C29.5952 86.2788 26.4197 85.228 22.8725 84.9756C21.342 80.6437 15.3603 77.4121 8.20982 77.4121L8.20728 79.9113C8.98905 80.2016 9.97963 81.0215 11.2401 82.8294Z" fill="#ACED70"/>
<path d="M9.74532 91.8909C9.18509 91.7028 8.66561 91.5346 8.18942 91.3811L8.18433 94.5319L37.4867 94.6639C37.1047 93.1 36.2746 91.6203 35.0803 90.3105C34.4029 90.5283 33.7765 90.8236 33.2392 91.2162C29.8472 93.7071 21.8335 95.939 9.74532 91.8909Z" fill="#91C656"/>
<path d="M96.4409 77.2246C91.9597 77.2246 87.8813 78.2173 84.7998 79.8483C82.4974 78.2448 79.0453 77.2246 75.1875 77.2246C63.9463 77.2246 58.4359 85.2248 66.381 89.8012C71.9913 87.2807 69.2332 91.329 72.3971 90.6752C83.062 88.4747 69.5743 85.3521 70.9974 81.5894C72.4206 77.8268 76.4725 82.3241 83.6295 85.7185C90.7835 89.113 84.1587 83.1499 94.1944 80.7636C95.0883 80.552 95.8293 80.3318 96.4409 80.1064V77.2246Z" fill="#ACED70"/>
<path d="M78.0474 87.0592C77.1665 88.9965 74.9199 90.4186 72.2417 91.4593L87.9001 91.3966L87.8853 82.5625C83.7556 82.9235 79.4161 84.0507 78.0474 87.0592Z" fill="#91C656"/>
</g>
</svg>
