<svg width="23" height="19" viewBox="0 0 23 19" fill="none" xmlns="http://www.w3.org/2000/svg">
<path d="M22.3787 2.87897C21.5647 3.23989 20.6892 3.484 19.771 3.59302C20.7085 3.03133 21.4279 2.14256 21.7675 1.0818C20.8903 1.6022 19.9182 1.97971 18.8846 2.18319C18.0564 1.3012 16.8765 0.75 15.5699 0.75C13.0631 0.75 11.0299 2.78315 11.0299 5.28997C11.0299 5.64581 11.0702 5.99218 11.1481 6.32466C7.375 6.13539 4.02953 4.32807 1.79018 1.58053C1.39947 2.25091 1.17533 3.03133 1.17533 3.86321C1.17533 5.43793 1.97742 6.82812 3.19494 7.64206C2.45108 7.61869 1.75057 7.41453 1.13876 7.07359C1.13842 7.09289 1.13842 7.11219 1.13842 7.13115C1.13842 9.33088 2.704 11.1656 4.78049 11.5824C4.39993 11.6867 3.99804 11.7419 3.58464 11.7419C3.29143 11.7419 3.00736 11.7138 2.73041 11.661C3.30802 13.4642 4.98431 14.7769 6.97142 14.8138C5.41735 16.0316 3.46004 16.7572 1.33243 16.7572C0.966765 16.7572 0.604489 16.7359 0.25 16.6936C2.2581 17.9822 4.64506 18.7335 7.20876 18.7335C15.5594 18.7335 20.1261 11.8157 20.1261 5.81578C20.1261 5.61906 20.1217 5.42303 20.1129 5.22869C21.0007 4.58878 21.7702 3.7894 22.3787 2.87897Z" fill="#FAAF1E"/>
</svg>
