<svg width="31" height="24" viewBox="0 0 31 24" fill="none" xmlns="http://www.w3.org/2000/svg">
<path d="M30.1287 2.83862C29.0434 3.31985 27.876 3.64534 26.6517 3.7907C27.9017 3.04177 28.861 1.85675 29.3138 0.442406C28.1442 1.13626 26.8481 1.63961 25.4699 1.91092C24.3656 0.734937 22.7924 0 21.0503 0C17.7079 0 14.997 2.71087 14.997 6.05329C14.997 6.52775 15.0507 6.98957 15.1546 7.43288C10.1238 7.18052 5.66315 4.77076 2.67736 1.10737C2.1564 2.00121 1.85755 3.04177 1.85755 4.15094C1.85755 6.25057 2.927 8.10416 4.55036 9.18941C3.55856 9.15826 2.62454 8.88605 1.8088 8.43145C1.80834 8.45718 1.80834 8.48291 1.80834 8.50819C1.80834 11.4412 3.89578 13.8875 6.66443 14.4432C6.15702 14.5823 5.62116 14.6558 5.06996 14.6558C4.67902 14.6558 4.30027 14.6184 3.93099 14.5479C4.70114 16.9523 6.93619 18.7025 9.58567 18.7517C7.51358 20.3755 4.90383 21.3429 2.06702 21.3429C1.57947 21.3429 1.09643 21.3145 0.623779 21.2581C3.30124 22.9762 6.48386 23.978 9.90212 23.978C21.0363 23.978 27.1253 14.7542 27.1253 6.75437C27.1253 6.49209 27.1194 6.2307 27.1077 5.97158C28.2913 5.11837 29.3174 4.05253 30.1287 2.83862Z" fill="white"/>
</svg>
