<svg width="23" height="23" viewBox="0 0 23 23" fill="none" xmlns="http://www.w3.org/2000/svg">
<path d="M0.0697021 22.2742L1.63372 16.5888C0.668764 14.925 0.161498 13.0373 0.162049 11.1039C0.164436 5.05473 5.10986 0.133301 11.1862 0.133301C14.1354 0.13458 16.9035 1.27717 18.9845 3.3509C21.066 5.42463 22.2117 8.18113 22.2106 11.1125C22.208 17.1619 17.2624 22.0839 11.1868 22.0839C11.1862 22.0839 11.1869 22.0839 11.1868 22.0839H11.1818C9.33689 22.0832 7.52391 21.6223 5.91381 20.7487L0.0697021 22.2742Z" fill="#FAAF1E"/>
<path d="M1.4934 20.869L2.59791 16.8541L2.70912 16.4498L2.49877 16.0871C1.62255 14.5763 1.16157 12.8619 1.16205 11.1043L1.4934 20.869ZM1.4934 20.869L5.66125 19.7811L6.04348 19.6813L6.3907 19.8697C7.85399 20.6637 9.50299 21.0832 11.1818 21.0839L1.4934 20.869ZM18.2787 4.05934L18.2786 4.05924C16.3857 2.17297 13.8718 1.13458 11.1862 1.1333L18.2787 4.05934ZM18.2787 4.05934C20.1723 5.94579 21.2115 8.44738 21.2106 11.1121L18.2787 4.05934ZM11.1867 21.0839H11.1868H11.1867ZM11.1867 21.0839H11.1822H11.1867ZM1.16205 11.1042C1.16428 5.61155 5.65757 1.13354 11.1858 1.1333L1.16205 11.1042ZM21.2106 11.1122C21.2082 16.6053 16.7144 21.0839 11.1868 21.0839H11.1868L21.2106 11.1122Z" stroke="#FAAF1E" stroke-opacity="0.9" stroke-width="2"/>
<path fill-rule="evenodd" clip-rule="evenodd" d="M8.3868 6.4241C8.17152 5.94544 7.94476 5.93582 7.73983 5.9275C7.57227 5.92029 7.38047 5.92066 7.18904 5.92066C6.99743 5.92066 6.68597 5.99279 6.42259 6.28039C6.15903 6.568 5.41626 7.26342 5.41626 8.67776C5.41626 10.0923 6.44645 11.4589 6.59016 11.6509C6.73387 11.8427 8.57878 14.8378 11.5005 15.9901C13.9288 16.9478 14.4228 16.7573 14.9499 16.7094C15.477 16.6615 16.6505 16.014 16.8901 15.3428C17.1298 14.6716 17.1298 14.0964 17.0578 13.9759C16.9859 13.8563 16.7942 13.7843 16.5068 13.6406C16.2194 13.4969 14.8062 12.8013 14.5426 12.7055C14.2791 12.6095 14.0874 12.5618 13.8958 12.8496C13.704 13.137 13.1536 13.7843 12.9859 13.9759C12.8181 14.1681 12.6504 14.1922 12.3629 14.0483C12.0755 13.9042 11.1496 13.6009 10.0514 12.6215C9.1969 11.8597 8.61984 10.9187 8.45209 10.6309C8.28452 10.3435 8.44932 10.2014 8.57841 10.0444C8.8109 9.76159 9.20097 9.25315 9.29677 9.06154C9.39258 8.86956 9.34468 8.70181 9.27292 8.55791C9.20097 8.4142 8.64222 6.99265 8.3868 6.4241Z" fill="white"/>
</svg>
